<?xml version="1.0" encoding="iso-8859-1"?>
<!-- Generator: Adobe Illustrator 17.1.0, SVG Export Plug-In . SVG Version: 6.00 Build 0)  -->
<!DOCTYPE svg PUBLIC "-//W3C//DTD SVG 1.1//EN" "http://www.w3.org/Graphics/SVG/1.1/DTD/svg11.dtd">
<svg version="1.1" id="Capa_1" xmlns="http://www.w3.org/2000/svg" xmlns:xlink="http://www.w3.org/1999/xlink" x="0px" y="0px"
	 viewBox="0 0 190.234 190.234" style="enable-background:new 0 0 190.234 190.234;" xml:space="preserve">
<path d="M145.867,186.65h-101.5c-1.104,0-2-0.896-2-2V54.798c-4.373,2.726-9.454,4.196-14.662,4.196C12.429,58.995,0,46.566,0,31.29
	C0,19.411,7.54,8.887,18.775,5.064c2.114-0.981,4.355-1.479,6.662-1.479h135.75c0.134,0,0.266,0.008,0.397,0.017l0.066,0.004
	c0.329-0.012,0.603-0.021,0.878-0.021c15.276,0,27.705,12.429,27.705,27.705s-12.429,27.705-27.705,27.705
	c-5.208,0-10.29-1.471-14.662-4.196V184.65C147.867,185.754,146.972,186.65,145.867,186.65z M134.45,182.65h9.417V51.766
	c-5.759-5.25-9.043-12.66-9.043-20.477c0-0.005,0-0.011,0-0.016c0-0.001,0-0.002,0-0.004c0-0.014,0-0.027,0-0.042
	c0.004-1.975,0.212-3.916,0.618-5.811h-80.65c0.411,1.911,0.618,3.863,0.618,5.83c0,0.005,0,0.01,0,0.015c0,0.001,0,0.003,0,0.005
	c0,0.017,0,0.033,0,0.05c-0.02,7.832-3.301,15.216-9.043,20.45V182.65h9.417V49.328c0-5.561,4.523-10.084,10.083-10.084
	S75.95,43.767,75.95,49.328V182.65h9.084V49.328c0-5.561,4.523-10.084,10.083-10.084S105.2,43.767,105.2,49.328V182.65h9.084V49.328
	c0-5.561,4.523-10.084,10.083-10.084s10.083,4.523,10.083,10.084V182.65z M118.284,182.65h12.166V49.328
	c0-3.354-2.729-6.084-6.083-6.084s-6.083,2.729-6.083,6.084V182.65z M89.034,182.65H101.2V49.328c0-3.354-2.729-6.084-6.083-6.084
	s-6.083,2.729-6.083,6.084V182.65z M59.784,182.65H71.95V49.328c0-3.354-2.729-6.084-6.083-6.084s-6.083,2.729-6.083,6.084V182.65z
	 M147.429,49.563c4.237,3.505,9.586,5.432,15.101,5.432c13.071,0,23.705-10.634,23.705-23.705S175.601,7.584,162.529,7.584
	c-0.251,0-0.501,0.01-0.75,0.019c-0.047,0.001-0.161,0.002-0.21,0.003l-0.382-0.021H25.438c-1.75,0-3.453,0.386-5.06,1.146
	c-0.071,0.034-0.145,0.063-0.219,0.089C10.494,12.063,4,21.093,4,31.29c0,13.071,10.634,23.705,23.705,23.705
	c5.52,0,10.874-1.93,15.113-5.441c0.075-0.096,0.159-0.184,0.251-0.263c5.294-4.512,8.334-11.079,8.341-18.019
	c0-0.07,0-0.141-0.001-0.211c-0.022-2.393-0.404-4.758-1.136-7.031c-0.15-0.469-0.121-0.972,0.071-1.413
	c0.059-0.141,0.134-0.275,0.225-0.399c0.376-0.516,0.97-0.842,1.608-0.842h85.879c0.639,0,1.239,0.306,1.616,0.822
	c0.271,0.371,0.402,0.82,0.382,1.27c-0.004,0.188-0.035,0.378-0.094,0.563c-0.752,2.337-1.134,4.771-1.137,7.234
	c0,0.161,0.002,0.322,0.005,0.483c0.142,6.761,3.162,13.134,8.336,17.543C147.262,49.374,147.351,49.465,147.429,49.563z
	 M162.383,48.929c-9.589,0-17.39-7.801-17.39-17.39s7.801-17.391,17.39-17.391s17.39,7.802,17.39,17.391
	S171.972,48.929,162.383,48.929z M162.383,18.149c-7.383,0-13.39,6.007-13.39,13.391c0,7.383,6.007,13.39,13.39,13.39
	s13.39-6.007,13.39-13.39C175.772,24.156,169.766,18.149,162.383,18.149z M27.455,48.429c-9.313,0-16.89-7.577-16.89-16.89
	c0-9.313,7.577-16.891,16.89-16.891c9.313,0,16.891,7.577,16.891,16.891C44.346,40.852,36.769,48.429,27.455,48.429z M27.455,18.649
	c-7.107,0-12.89,5.783-12.89,12.891s5.782,12.89,12.89,12.89c7.108,0,12.891-5.782,12.891-12.89S34.563,18.649,27.455,18.649z
	 M162.383,38.842c-4.026,0-7.303-3.276-7.303-7.303c0-4.027,3.276-7.304,7.303-7.304c4.027,0,7.304,3.276,7.304,7.304
	C169.687,35.566,166.41,38.842,162.383,38.842z M162.383,28.236c-1.821,0-3.303,1.482-3.303,3.304s1.481,3.303,3.303,3.303
	s3.304-1.481,3.304-3.303S164.204,28.236,162.383,28.236z M27.455,38.67c-3.932,0-7.131-3.199-7.131-7.131s3.199-7.131,7.131-7.131
	s7.131,3.199,7.131,7.131S31.387,38.67,27.455,38.67z M27.455,28.409c-1.727,0-3.131,1.404-3.131,3.131s1.404,3.131,3.131,3.131
	s3.131-1.404,3.131-3.131S29.182,28.409,27.455,28.409z"/>
<g>
</g>
<g>
</g>
<g>
</g>
<g>
</g>
<g>
</g>
<g>
</g>
<g>
</g>
<g>
</g>
<g>
</g>
<g>
</g>
<g>
</g>
<g>
</g>
<g>
</g>
<g>
</g>
<g>
</g>
</svg>
